<?xml version="1.0"?><svg width="640" height="480" xmlns="http://www.w3.org/2000/svg">
 <title>house logo</title>
 <metadata id="metadata7">image/svg+xml</metadata>
 <g>
  <title>Layer 1</title>
  <g id="svg_5">
   <path fill="#007fff" d="m543.522095,244.054413l0,0zm0,0l-222.957764,-156.007683l-223.086403,156.075157l0,223.022736c0,5.759766 5.890739,10.380157 13.180634,10.380157l139.423729,0l0,-97.783722c0,-5.759735 5.847778,-10.413879 13.137711,-10.413879l114.560303,0c7.289642,0 13.137634,4.654144 13.137634,10.413879l0,97.783722l139.466522,0c7.289917,0 13.137634,-4.620392 13.137634,-10.380157l0,-223.09021zm-446.044167,0.067474l0,0z" id="rect2391"/>
   <path fill="#007fff" d="m319.270386,2.669663l-316.401379,221.354873l33.329327,29.708084l284.366577,-198.958485l284.301239,198.958485l33.264709,-29.708084l-316.336456,-221.354873l-1.229492,1.125101l-1.294434,-1.125101l-0.000092,0z" id="path2399"/>
   <path fill="#007fff" d="m97.477928,34.53286l80.208641,0l-0.698853,37.535103l-79.509789,56.751633l0,-94.286736z" id="rect2404"/>
  </g>
 </g>
</svg>